<mxfile host="Electron" modified="2023-06-19T12:53:18.781Z" agent="Mozilla/5.0 (Windows NT 10.0; Win64; x64) AppleWebKit/537.36 (KHTML, like Gecko) draw.io/21.4.0 Chrome/112.0.5615.204 Electron/24.5.1 Safari/537.36" etag="jbMGtrxi6ELi3emPGnRt" version="21.4.0" type="device">
  <diagram name="Page-1" id="2noeE2SHjC90f5eLnEJZ">
    <mxGraphModel dx="1326" dy="830" grid="1" gridSize="10" guides="1" tooltips="1" connect="1" arrows="1" fold="1" page="1" pageScale="1" pageWidth="827" pageHeight="1169" math="0" shadow="0">
      <root>
        <mxCell id="0" />
        <mxCell id="1" parent="0" />
        <mxCell id="AnJVzxNqPgu1LW581LVv-1" value="&lt;font style=&quot;font-size: 21px;&quot;&gt;Server&lt;/font&gt;" style="rounded=1;whiteSpace=wrap;html=1;" parent="1" vertex="1">
          <mxGeometry x="387" y="110" width="120" height="60" as="geometry" />
        </mxCell>
        <mxCell id="MXd_mWaot6TiRnAVHc5d-1" value="&lt;font style=&quot;font-size: 21px;&quot;&gt;Play window&lt;/font&gt;" style="rounded=1;whiteSpace=wrap;html=1;" parent="1" vertex="1">
          <mxGeometry x="320" y="310" width="255" height="160" as="geometry" />
        </mxCell>
        <mxCell id="MXd_mWaot6TiRnAVHc5d-2" value="" style="endArrow=classic;startArrow=classic;html=1;rounded=0;exitX=0.5;exitY=0;exitDx=0;exitDy=0;entryX=0.5;entryY=1;entryDx=0;entryDy=0;" parent="1" source="MXd_mWaot6TiRnAVHc5d-1" target="AnJVzxNqPgu1LW581LVv-1" edge="1">
          <mxGeometry width="50" height="50" relative="1" as="geometry">
            <mxPoint x="432" y="280" as="sourcePoint" />
            <mxPoint x="482" y="230" as="targetPoint" />
          </mxGeometry>
        </mxCell>
        <mxCell id="MXd_mWaot6TiRnAVHc5d-3" value="&lt;font style=&quot;&quot;&gt;&lt;font style=&quot;font-size: 20px;&quot;&gt;message&lt;/font&gt;&lt;br&gt;&lt;/font&gt;" style="text;html=1;align=center;verticalAlign=middle;resizable=0;points=[];autosize=1;" parent="1" vertex="1">
          <mxGeometry x="447" y="220" width="100" height="40" as="geometry" />
        </mxCell>
      </root>
    </mxGraphModel>
  </diagram>
</mxfile>
